<svg width="40" height="40" viewBox="0 0 40 40" fill="none" xmlns="http://www.w3.org/2000/svg">
<path d="M29.1723 0H10.8276C4.85717 0 0 4.85717 0 10.8276V29.1726C0 35.1428 4.85717 39.9999 10.8276 39.9999H29.1726C35.1428 39.9999 39.9999 35.1428 39.9999 29.1726V10.8276C39.9999 4.85717 35.1428 0 29.1723 0V0ZM20 30.9371C13.9691 30.9371 9.06279 26.0308 9.06279 20C9.06279 13.9691 13.9691 9.06279 20 9.06279C26.0308 9.06279 30.9371 13.9691 30.9371 20C30.9371 26.0308 26.0308 30.9371 20 30.9371ZM31.1987 11.6421C29.4165 11.6421 27.9669 10.1925 27.9669 8.41032C27.9669 6.6281 29.4165 5.17821 31.1987 5.17821C32.9809 5.17821 34.4308 6.6281 34.4308 8.41032C34.4308 10.1925 32.9809 11.6421 31.1987 11.6421Z" fill="white"/>
<path d="M19.9999 11.4078C15.2624 11.4078 11.4077 15.2622 11.4077 20C11.4077 24.7376 15.2624 28.5923 19.9999 28.5923C24.7378 28.5923 28.5921 24.7376 28.5921 20C28.5921 15.2622 24.7378 11.4078 19.9999 11.4078Z" fill="white"/>
<path d="M31.1988 7.52344C30.71 7.52344 30.312 7.92139 30.312 8.41028C30.312 8.89917 30.71 9.29712 31.1988 9.29712C31.688 9.29712 32.086 8.89947 32.086 8.41028C32.086 7.92108 31.688 7.52344 31.1988 7.52344Z" fill="white"/>
</svg>
