<svg width="40" height="40" viewBox="0 0 40 40" fill="none" xmlns="http://www.w3.org/2000/svg">
<g clip-path="url(#clip0)">
<path d="M33.1917 21.7134C32.545 20.8967 32.73 20.5334 33.1917 19.8034C33.2 19.795 38.5383 12.4184 39.0883 9.91671L39.0917 9.91504C39.365 9.00337 39.0917 8.33337 37.77 8.33337H33.3967C32.2833 8.33337 31.77 8.90837 31.495 9.55171C31.495 9.55171 29.2683 14.8817 26.1183 18.3367C25.1017 19.335 24.6317 19.655 24.0767 19.655C23.8033 19.655 23.3783 19.335 23.3783 18.4234V9.91504C23.3783 8.82171 23.0667 8.33337 22.145 8.33337H15.2683C14.57 8.33337 14.155 8.84337 14.155 9.31837C14.155 10.355 15.73 10.5934 15.8933 13.51V19.8384C15.8933 21.225 15.6417 21.48 15.0833 21.48C13.5967 21.48 9.98833 16.1284 7.85 10.0034C7.41833 8.81504 6.99667 8.33504 5.875 8.33504H1.5C0.251667 8.33504 0 8.91004 0 9.55337C0 10.69 1.48667 16.3417 6.91333 23.8084C10.53 28.905 15.6233 31.6667 20.2567 31.6667C23.0417 31.6667 23.3817 31.0534 23.3817 29.9984C23.3817 25.1284 23.13 24.6684 24.525 24.6684C25.1717 24.6684 26.285 24.9884 28.885 27.4467C31.8567 30.3617 32.345 31.6667 34.0083 31.6667H38.3817C39.6283 31.6667 40.26 31.0534 39.8967 29.8434C39.065 27.2984 33.445 22.0634 33.1917 21.7134Z" fill="white"/>
</g>
<defs>
<clipPath id="clip0">
<rect width="40" height="40" fill="white"/>
</clipPath>
</defs>
</svg>
